<svg xmlns="http://www.w3.org/2000/svg" style="display: none">
    <symbol id="social-x" viewBox="0 0 19 19" fill="none" xmlns="http://www.w3.org/2000/svg">
        <path
            d="M14.9625 0.890316H17.8763L11.5113 8.1836L19 18.1097H13.1371L8.54186 12.0908L3.28971 18.1097H0.373214L7.18064 10.3062L0 0.891673H6.01214L10.1596 6.39217L14.9625 0.890316ZM13.9379 16.3617H15.5529L5.13 2.54739H3.39829L13.9379 16.3617Z"
            fill="currentColor" />

    </symbol>

    <symbol id="social-telegram" viewBox="0 0 32 28" fill="none" xmlns="http://www.w3.org/2000/svg">
        <path
            d="M29.2729 1.00316C29.2729 1.00316 32.2329 -0.142241 31.9853 2.63923C31.9038 3.78463 31.1639 7.79392 30.5879 12.1298L28.6146 24.9749C28.6146 24.9749 28.45 26.8567 26.9696 27.1841C25.49 27.5107 23.2698 26.0387 22.8583 25.7113C22.5292 25.4656 16.6914 21.7837 14.6358 19.9843C14.0598 19.4929 13.4015 18.5116 14.7181 17.3662L23.3521 9.18428C24.3387 8.20142 25.3254 5.91062 21.2141 8.69285L9.70165 16.465C9.70165 16.465 8.38583 17.2837 5.91952 16.5474L0.573944 14.9105C0.573944 14.9105 -1.39941 13.6835 1.97205 12.4564C10.1954 8.6112 20.3097 4.68432 29.2721 1.0024"
            fill="currentColor" />
    </symbol>
    <symbol id="point" viewBox="0 0 20 20" fill="none">
        <path
            d="M8.13086 3.09863C8.78494 1.38091 11.2151 1.38092 11.8691 3.09863L13.2568 6.74316L16.9014 8.13086C18.6191 8.78494 18.6191 11.2151 16.9014 11.8691L13.2568 13.2568L11.8691 16.9014C11.2151 18.6191 8.78493 18.6191 8.13086 16.9014L6.74316 13.2568L3.09863 11.8691C1.38091 11.2151 1.38092 8.78493 3.09863 8.13086L6.74316 6.74316L8.13086 3.09863Z"
            stroke="currentColor" stroke-width="2" />
    </symbol>

    <symbol id="menu-games" viewBox="0 0 22 22" fill="none">
        <path
            d="M7.56396 5H14.4497C15.8255 5 17.1448 5.54677 18.1177 6.51953C19.0905 7.49238 19.6372 8.81169 19.6372 10.1875C19.6372 11.5633 19.0905 12.8826 18.1177 13.8555C17.1448 14.8282 15.8255 15.375 14.4497 15.375H7.56396C6.18815 15.375 4.86884 14.8283 3.896 13.8555C2.92315 12.8826 2.37646 11.5633 2.37646 10.1875C2.37646 8.81169 2.92315 7.49238 3.896 6.51953C4.86884 5.54669 6.18815 5 7.56396 5Z"
            stroke="currentColor" stroke-width="2" />
        <path
            d="M5.21526 9.66769C5.07743 9.80552 5 9.99246 5 10.1874C5 10.3823 5.07743 10.5692 5.21526 10.7071C5.35309 10.8449 5.54003 10.9223 5.73495 10.9223H7.20486V12.3922C7.20486 12.5872 7.2823 12.7741 7.42013 12.9119C7.55796 13.0498 7.7449 13.1272 7.93982 13.1272C8.13474 13.1272 8.32168 13.0498 8.45951 12.9119C8.59734 12.7741 8.67477 12.5872 8.67477 12.3922V10.9223H10.1447C10.3396 10.9223 10.5265 10.8449 10.6644 10.7071C10.8022 10.5692 10.8796 10.3823 10.8796 10.1874C10.8796 9.99246 10.8022 9.80552 10.6644 9.66769C10.5265 9.52986 10.3396 9.45242 10.1447 9.45242H8.67477V7.98251C8.67477 7.78759 8.59734 7.60065 8.45951 7.46282C8.32168 7.32499 8.13474 7.24756 7.93982 7.24756C7.7449 7.24756 7.55796 7.32499 7.42013 7.46282C7.2823 7.60065 7.20486 7.78759 7.20486 7.98251V9.45242H5.73495C5.54003 9.45242 5.35309 9.52986 5.21526 9.66769Z"
            fill="currentColor" />
        <circle cx="15.4109" cy="8.80835" r="1.01636" fill="currentColor" />
        <circle cx="13.5266" cy="11.5667" r="1.01636" fill="currentColor" />
    </symbol>

    <symbol id="menu-leaderboards" viewBox="0 0 22 22" fill="none">
        <path
            d="M13.75 19.25H8.25M13.75 19.25V11.55C13.75 11.4041 13.6921 11.2642 13.5889 11.1611C13.4858 11.0579 13.3459 11 13.2 11H8.8C8.65413 11 8.51424 11.0579 8.41109 11.1611C8.30795 11.2642 8.25 11.4041 8.25 11.55V19.25M13.75 19.25H18.7C18.8459 19.25 18.9858 19.1921 19.0889 19.0889C19.1921 18.9858 19.25 18.8459 19.25 18.7V16.5917C19.25 16.4458 19.1921 16.3059 19.0889 16.2028C18.9858 16.0996 18.8459 16.0417 18.7 16.0417H14.3C14.1541 16.0417 14.0142 16.0996 13.9111 16.2028C13.8079 16.3059 13.75 16.4458 13.75 16.5917V19.25ZM8.25 19.25V14.7583C8.25 14.6125 8.19205 14.4726 8.08891 14.3694C7.98576 14.2663 7.84587 14.2083 7.7 14.2083H3.3C3.15413 14.2083 3.01424 14.2663 2.91109 14.3694C2.80795 14.4726 2.75 14.6125 2.75 14.7583V18.7C2.75 18.8459 2.80795 18.9858 2.91109 19.0889C3.01424 19.1921 3.15413 19.25 3.3 19.25H8.25Z"
            stroke="currentColor" stroke-width="2" stroke-linecap="round" stroke-linejoin="round" />
        <path
            d="M10.7132 1.78405L9.79757 3.72514L7.74869 4.03842C7.48679 4.07871 7.38102 4.41717 7.57241 4.61057L9.05316 6.12155L8.70363 8.25504C8.6593 8.52903 8.9343 8.73754 9.169 8.60861L11.0003 7.60129L12.8316 8.60861C13.0673 8.73855 13.3413 8.52903 13.297 8.25504L12.9474 6.12155L14.4282 4.61057C14.6186 4.41717 14.5138 4.07871 14.2509 4.03842L12.204 3.72514L11.2874 1.78405C11.2627 1.72856 11.2224 1.68142 11.1714 1.64834C11.1205 1.61526 11.0611 1.59766 11.0003 1.59766C10.9396 1.59766 10.8801 1.61526 10.8292 1.64834C10.7782 1.68142 10.7379 1.72856 10.7132 1.78405Z"
            stroke="currentColor" stroke-width="2" stroke-linecap="round" stroke-linejoin="round" />
    </symbol>

    <symbol id="menu-convert" viewBox="0 0 22 18" fill="none">
        <g clip-path="url(#clip0_84_1896)">
            <path d="M12.5 16C14.6667 16.1667 19 15.1 19 9.5C19 7.66667 17.7 4 12.5 4M12.5 4L15 8M12.5 4L16 1"
                stroke="currentColor" stroke-width="2" stroke-linecap="round" stroke-linejoin="round" />
            <path
                d="M9.5 2.01611C7.33333 1.84945 3 2.91611 3 8.51611C3 10.3494 4.3 14.0161 9.5 14.0161M9.5 14.0161L7 10.0161M9.5 14.0161L6 17.0161"
                stroke="currentColor" stroke-width="2" stroke-linecap="round" stroke-linejoin="round" />
        </g>
        <defs>
            <clipPath id="clip0_84_1896">
                <rect width="22" height="18" fill="currentColor" />
            </clipPath>
        </defs>
    </symbol>

    <symbol id="menu-airdrop" viewBox="0 0 22 22" fill="none">
        <g clip-path="url(#clip0_80_167)">
            <path
                d="M10.9769 17.786H12.5061M10.9769 11.2872V6.69973M7.15407 11.2872L3.33121 6.69973M14.7998 11.2872L18.6227 6.69973M14.4175 11.2749H7.53636C7.1308 11.2749 6.74186 11.436 6.45509 11.7228C6.16832 12.0096 6.00721 12.3985 6.00721 12.8041V19.6852C6.00721 20.0908 6.16832 20.4797 6.45509 20.7665C6.74186 21.0533 7.1308 21.2144 7.53636 21.2144H14.4175C14.8231 21.2144 15.212 21.0533 15.4988 20.7665C15.7856 20.4797 15.9467 20.0908 15.9467 19.6852V12.8041C15.9467 12.3985 15.7856 12.0096 15.4988 11.7228C15.212 11.436 14.8231 11.2749 14.4175 11.2749ZM19.3872 6.71043C19.5263 6.70933 19.6625 6.6703 19.7811 6.59755C19.8996 6.52479 19.9961 6.42108 20.0601 6.29756C20.1351 6.18136 20.175 6.04596 20.175 5.90763C20.175 5.7693 20.1351 5.6339 20.0601 5.5177C19.0113 4.12387 17.6314 3.01359 16.0454 2.28735C14.4594 1.56111 12.7174 1.24183 10.9769 1.35842C9.24402 1.24961 7.51119 1.57266 5.93388 2.29859C4.35658 3.02452 2.98415 4.13063 1.93968 5.5177C1.86463 5.6339 1.82471 5.7693 1.82471 5.90763C1.82471 6.04596 1.86463 6.18136 1.93968 6.29756C1.99986 6.41449 2.08917 6.51391 2.199 6.58624C2.30882 6.65856 2.43545 6.70134 2.56663 6.71043H19.3872Z"
                stroke="currentColor" stroke-width="2" stroke-linecap="round" stroke-linejoin="round" />
        </g>
        <defs>
            <clipPath id="clip0_80_167">
                <rect width="22" height="22" fill="currentColor" />
            </clipPath>
        </defs>
    </symbol>

    <symbol id="menu-tasks" viewBox="0 0 22 22" fill="none">
        <g clip-path="url(#clip0_84_1935)">
            <path
                d="M5.74941 1.55975C6.21777 1.88631 6.32949 2.53084 6.00293 2.99491L3.59668 6.43241C3.42051 6.68163 3.14551 6.84061 2.84043 6.86639C2.53535 6.89217 2.23457 6.78905 2.01973 6.5742L0.300977 4.85545C-0.0986328 4.45155 -0.0986328 3.79842 0.300977 3.39452C0.700586 2.99061 1.35801 2.99491 1.76191 3.39452L2.6127 4.2453L4.31426 1.81327C4.64082 1.34491 5.28535 1.23319 5.74941 1.55975ZM5.74941 8.43475C6.21777 8.76131 6.32949 9.40584 6.00293 9.86991L3.59668 13.3074C3.42051 13.5566 3.14551 13.7156 2.84043 13.7414C2.53535 13.7672 2.23457 13.664 2.01973 13.4492L0.300977 11.7305C-0.10293 11.3265 -0.10293 10.6734 0.300977 10.2738C0.704883 9.8742 1.35801 9.86991 1.75762 10.2738L2.6084 11.1246L4.30996 8.69256C4.63652 8.2242 5.28105 8.11248 5.74512 8.43905L5.74941 8.43475ZM9.6252 4.12499C9.6252 3.36444 10.2396 2.74999 11.0002 2.74999H20.6252C21.3857 2.74999 22.0002 3.36444 22.0002 4.12499C22.0002 4.88553 21.3857 5.49999 20.6252 5.49999H11.0002C10.2396 5.49999 9.6252 4.88553 9.6252 4.12499ZM9.6252 11C9.6252 10.2394 10.2396 9.62499 11.0002 9.62499H20.6252C21.3857 9.62499 22.0002 10.2394 22.0002 11C22.0002 11.7605 21.3857 12.375 20.6252 12.375H11.0002C10.2396 12.375 9.6252 11.7605 9.6252 11ZM6.8752 17.875C6.8752 17.1144 7.48965 16.5 8.2502 16.5H20.6252C21.3857 16.5 22.0002 17.1144 22.0002 17.875C22.0002 18.6355 21.3857 19.25 20.6252 19.25H8.2502C7.48965 19.25 6.8752 18.6355 6.8752 17.875ZM2.7502 16.1562C3.20604 16.1562 3.64321 16.3373 3.96554 16.6596C4.28786 16.982 4.46895 17.4191 4.46895 17.875C4.46895 18.3308 4.28786 18.768 3.96554 19.0903C3.64321 19.4127 3.20604 19.5937 2.7502 19.5937C2.29435 19.5937 1.85718 19.4127 1.53486 19.0903C1.21253 18.768 1.03145 18.3308 1.03145 17.875C1.03145 17.4191 1.21253 16.982 1.53486 16.6596C1.85718 16.3373 2.29435 16.1562 2.7502 16.1562Z"
                fill="currentColor" />
        </g>
        <defs>
            <clipPath id="clip0_84_1935">
                <rect width="22" height="22" fill="currentColor" />
            </clipPath>
        </defs>
    </symbol>

    <symbol id="menu-settings" viewBox="0 0 22 22" fill="none">
        <path
            d="M11 8.5625C11.6465 8.5625 12.2665 8.81925 12.7236 9.27637C13.1808 9.73349 13.4375 10.3535 13.4375 11C13.4375 11.6465 13.1808 12.2665 12.7236 12.7236C12.2665 13.1808 11.6465 13.4375 11 13.4375C10.3535 13.4375 9.73349 13.1808 9.27637 12.7236C8.81925 12.2665 8.5625 11.6465 8.5625 11C8.5625 10.3535 8.81925 9.73349 9.27637 9.27637C9.73349 8.81925 10.3535 8.5625 11 8.5625Z"
            stroke="currentColor" stroke-width="2" />
        <path
            d="M10.9775 2.14575H11.0234C11.4432 2.14575 11.744 2.14604 11.9805 2.16235H11.9834C12.2201 2.17804 12.374 2.20979 12.498 2.26099C12.6825 2.33745 12.85 2.44985 12.9912 2.59106C13.1323 2.73229 13.2449 2.89975 13.3213 3.08423L13.3223 3.08716C13.3849 3.2372 13.417 3.42896 13.4297 3.76782V3.76685C13.4374 4.06309 13.5181 4.35299 13.665 4.6106C13.8157 4.87455 14.0306 5.09589 14.29 5.25415L14.3115 5.26782L14.333 5.27954C14.5996 5.42444 14.8987 5.49909 15.2021 5.49731C15.4984 5.49555 15.7887 5.41895 16.0488 5.27759L16.0498 5.27954C16.3445 5.1231 16.5284 5.05282 16.6924 5.03052L16.6934 5.03149C16.8914 5.00553 17.0932 5.01875 17.2861 5.07056C17.4765 5.12176 17.6547 5.21 17.8115 5.32935C17.943 5.43637 18.0569 5.56392 18.1475 5.70728L18.1523 5.71509C18.3267 5.98534 18.4931 6.26068 18.6504 6.54126L18.6533 6.54712L18.6758 6.58716L18.6807 6.59595L18.6865 6.60474C18.851 6.88097 19.0063 7.16256 19.1533 7.44849L19.1582 7.45728C19.2375 7.60794 19.2904 7.77067 19.3174 7.93872C19.3417 8.13346 19.3292 8.33113 19.2783 8.52075C19.2266 8.71356 19.1372 8.89461 19.0156 9.05298C18.9392 9.15165 18.8347 9.24637 18.668 9.36255L18.4785 9.48755C17.9597 9.81325 17.6191 10.3742 17.6191 11.0002V11.0129L17.6201 11.0256C17.6279 11.3296 17.7124 11.6267 17.8662 11.8889C18.0155 12.1434 18.2263 12.3558 18.4775 12.51V12.512C18.7637 12.6921 18.9154 12.8161 19.0156 12.9465C19.2609 13.2665 19.369 13.6709 19.3164 14.0706V14.0745C19.2997 14.2043 19.2502 14.3508 19.1436 14.5686V14.5696C19.0393 14.7827 18.889 15.0441 18.6797 15.4055L18.6758 15.4124L18.6562 15.4475C18.448 15.8087 18.2946 16.0713 18.1611 16.2708C18.0616 16.4185 17.9788 16.5211 17.8984 16.5979L17.8184 16.6672C17.4984 16.9125 17.094 17.0207 16.6943 16.968H16.6924C16.5302 16.9468 16.3477 16.8773 16.0479 16.719L16.0469 16.72C15.7877 16.5794 15.4983 16.5033 15.2031 16.5012C14.8994 16.4991 14.6 16.5741 14.333 16.719L14.3096 16.7317L14.2871 16.7454C14.028 16.9043 13.813 17.1265 13.6631 17.3909C13.5178 17.6471 13.4395 17.9356 13.4316 18.2297H13.4307C13.4171 18.57 13.3849 18.7628 13.3223 18.9143C13.2458 19.0988 13.1335 19.2673 12.9922 19.4084C12.851 19.5494 12.6834 19.6612 12.499 19.7375L12.4961 19.7385C12.3729 19.7899 12.2206 19.8215 11.9805 19.8381C11.7425 19.8536 11.4407 19.8538 11.0234 19.8538H10.9775C10.5574 19.8538 10.2561 19.8535 10.0195 19.8372H10.0166C9.83851 19.8254 9.70738 19.805 9.60059 19.7737L9.50195 19.7385C9.31753 19.662 9.14993 19.5497 9.00879 19.4084C8.86773 19.2672 8.75602 19.0997 8.67969 18.9153L8.67773 18.9124C8.61523 18.7623 8.58393 18.5704 8.57129 18.2317H8.56934C8.56405 18.0122 8.52064 17.796 8.4375 17.594L8.33691 17.3889L8.21094 17.1975C8.07336 17.0152 7.90205 16.8598 7.70508 16.7415L7.68652 16.7307L7.66699 16.72C7.40044 16.5752 7.1012 16.5004 6.79785 16.5022C6.50174 16.504 6.21118 16.5797 5.95117 16.7209V16.72C5.72882 16.838 5.56888 16.9065 5.43359 16.9426L5.30469 16.969C5.10743 16.9946 4.90697 16.9815 4.71484 16.9299C4.52193 16.8781 4.34101 16.788 4.18262 16.6663L4.17871 16.6633L4.10059 16.5969C4.02199 16.5221 3.9388 16.4206 3.83789 16.2708H3.83887C3.77214 16.1711 3.70004 16.0559 3.61914 15.9202L3.34473 15.4475L3.32422 15.4124L3.32031 15.4055C3.21569 15.2249 3.12595 15.0687 3.04883 14.9309L2.85449 14.5667C2.77576 14.4056 2.72823 14.2827 2.70215 14.175L2.68262 14.0715C2.65659 13.8737 2.67006 13.6725 2.72168 13.4797C2.77339 13.2869 2.86183 13.1049 2.9834 12.9465C3.0856 12.8145 3.23941 12.6907 3.52344 12.512L3.52148 12.51C3.77317 12.3558 3.98426 12.1437 4.13379 11.8889C4.28769 11.6266 4.37304 11.3297 4.38086 11.0256V10.9739C4.37299 10.6699 4.28767 10.3728 4.13379 10.1106C3.98429 9.85588 3.77404 9.64271 3.52246 9.48853H3.52344C3.30839 9.35317 3.16874 9.24917 3.07031 9.15063L2.98438 9.05298C2.73913 8.733 2.6309 8.32865 2.68359 7.92896L2.68457 7.92505C2.69709 7.8275 2.72761 7.72141 2.78711 7.58228L2.85645 7.43091C2.96071 7.2177 3.1108 6.95571 3.32031 6.59399L3.32422 6.58716L3.34668 6.54614C3.55332 6.1878 3.70608 5.92716 3.83887 5.72876L3.84668 5.71802L3.85352 5.7063C3.94488 5.56144 4.05934 5.43225 4.19238 5.32446C4.34833 5.20687 4.52611 5.12018 4.71484 5.06958C4.9076 5.01798 5.1088 5.00547 5.30664 5.03149V5.03052C5.47019 5.05253 5.65426 5.12269 5.95312 5.28052V5.27954C6.21286 5.42035 6.50313 5.49653 6.79883 5.49829C7.1026 5.50005 7.40214 5.42478 7.66895 5.27954L7.69141 5.26685L7.71387 5.25317C7.97259 5.09438 8.18704 4.87264 8.33691 4.60864C8.48242 4.35234 8.56037 4.06411 8.56836 3.76978L8.57031 3.77075C8.58387 3.43018 8.61502 3.23675 8.67773 3.08521C8.7542 2.90076 8.8666 2.7332 9.00781 2.59204C9.14645 2.4535 9.31073 2.34309 9.49121 2.26685C9.65101 2.20534 9.82008 2.17022 9.99121 2.16333L10.0039 2.16235H10.0166C10.2551 2.14668 10.5581 2.14575 10.9775 2.14575Z"
            stroke="currentColor" stroke-width="2" />
    </symbol>

    <symbol id="menu-contact" viewBox="0 0 22 22" fill="none">
        <g clip-path="url(#clip0_80_150)">
            <path
                d="M7 3H14C16.7614 3 19 5.23858 19 8V12.4287C18.9999 15.1901 16.7614 17.4287 14 17.4287H9.06152C8.51069 17.4287 7.97035 17.5805 7.5 17.8672L3.52051 20.293C2.85414 20.699 2 20.2188 2 19.4385V8L2.00684 7.74316C2.14053 5.10111 4.32472 3 7 3Z"
                stroke="currentColor" stroke-width="2" />
        </g>
        <defs>
            <clipPath id="clip0_80_150">
                <rect width="22" height="22" fill="currentColor" />
            </clipPath>
        </defs>
    </symbol>


    <symbol id="phantom" viewBox="0 0 34 34" fill="none" xmlns="http://www.w3.org/2000/svg">
        <path
            d="M4.93311 29.9879C8.96817 29.9879 12.0002 26.6151 13.8095 23.952C13.5938 24.5094 13.4779 25.1005 13.467 25.6981C13.467 27.2528 14.398 28.3612 16.232 28.3612C18.7493 28.3612 21.4405 26.2392 22.8335 23.952C22.7443 24.251 22.6952 24.5605 22.6877 24.8725C22.6877 25.9563 23.3236 26.6397 24.6201 26.6397C28.7026 26.6397 32.8114 19.685 32.8114 13.6035C32.8114 8.86398 30.3169 4.69189 24.0562 4.69189C13.0524 4.69189 1.19141 17.6104 1.19141 25.9563C1.19141 29.2343 3.02537 29.9879 4.93311 29.9879ZM20.267 13.0852C20.267 11.9065 20.9522 11.0809 21.9534 11.0809C22.9319 11.0809 23.617 11.9065 23.617 13.0835C23.617 14.264 22.9319 15.1124 21.9534 15.1124C20.9522 15.1124 20.267 14.264 20.267 13.0852ZM25.5002 13.0852C25.5002 11.9065 26.1853 11.0809 27.1866 11.0809C28.165 11.0809 28.8501 11.9065 28.8501 13.0835C28.8501 14.264 28.165 15.1124 27.1866 15.1124C26.1853 15.1124 25.5002 14.264 25.5002 13.0852Z"
            fill="currentColor" />
    </symbol>

</svg>