<svg width="316" height="155" viewBox="0 0 316 155" fill="none" xmlns="http://www.w3.org/2000/svg">
<path d="M293.891 23.6813L299.33 0L267.097 4.89155H49.5L8.41805 1.37541L16.6625 16.7022L6.91903 26.9454L17.0789 45.9893L4.99879 59.7004L12.8716 81.3669L3.10333 92.0328L14.0313 97.9747L0.873047 130.077L14.0381 138.688L2.78962 154.569L79.6558 150.854L263.82 151L308.344 139.09L286.521 122.226L308.344 107.827L293.891 88.6138L312.442 73.1606L293.891 58.312L316 26.7369L293.891 23.6813Z" fill="#D9D9D9"/>
<path d="M293.891 23.6813L299.33 0L267.097 4.89155H49.5L8.41805 1.37541L16.6625 16.7022L6.91903 26.9454L17.0789 45.9893L4.99879 59.7004L12.8716 81.3669L3.10333 92.0328L14.0313 97.9747L0.873047 130.077L14.0381 138.688L2.78962 154.569L79.6558 150.854L263.82 151L308.344 139.09L286.521 122.226L308.344 107.827L293.891 88.6138L312.442 73.1606L293.891 58.312L316 26.7369L293.891 23.6813Z" fill="#302D2E"/>
</svg>
