<svg width="100" height="32" viewBox="0 0 100 32" fill="none" xmlns="http://www.w3.org/2000/svg">
<g clip-path="url(#clip0_3133_3737)">
<path d="M15.7451 1.5H84.2549C88.025 1.50013 91.646 3.02171 94.3193 5.73828C96.9936 8.45577 98.5 12.1467 98.5 16C98.5 19.8533 96.9936 23.5442 94.3193 26.2617C91.646 28.9783 88.025 30.4999 84.2549 30.5H15.7451C11.975 30.4999 8.35404 28.9783 5.68066 26.2617C3.00641 23.5442 1.5 19.8533 1.5 16C1.5 12.1467 3.00641 8.45577 5.68066 5.73828C8.35404 3.02171 11.975 1.50013 15.7451 1.5Z" stroke="#F1D9BD" stroke-width="3"/>
<path d="M10.4393 14.9393C10.158 15.2206 10 15.6022 10 16C10 16.3978 10.158 16.7794 10.4393 17.0607C10.7206 17.342 11.1022 17.5 11.5 17.5H14.5V20.5C14.5 20.8978 14.658 21.2794 14.9393 21.5607C15.2206 21.842 15.6022 22 16 22C16.3978 22 16.7794 21.842 17.0607 21.5607C17.342 21.2794 17.5 20.8978 17.5 20.5V17.5H20.5C20.8978 17.5 21.2794 17.342 21.5607 17.0607C21.842 16.7794 22 16.3978 22 16C22 15.6022 21.842 15.2206 21.5607 14.9393C21.2794 14.658 20.8978 14.5 20.5 14.5H17.5V11.5C17.5 11.1022 17.342 10.7206 17.0607 10.4393C16.7794 10.158 16.3978 10 16 10C15.6022 10 15.2206 10.158 14.9393 10.4393C14.658 10.7206 14.5 11.1022 14.5 11.5V14.5H11.5C11.1022 14.5 10.7206 14.658 10.4393 14.9393Z" fill="#F1D9BD"/>
<circle cx="86.384" cy="12.5871" r="2.58709" fill="#F1D9BD"/>
<circle cx="81.5871" cy="19.6081" r="2.58709" fill="#F1D9BD"/>
<path d="M32.4 23.2C29.92 23.2 28.22 22.1 27.4 21.1L28.88 19.66C29.58 20.4 30.68 21.2 32.4 21.2C34.2 21.2 35.2 20.2 35.2 19.1C35.2 16 27.8 17.9 27.8 12.7C27.8 10.6 29.6 8.8 32.6 8.8C34.68 8.8 36.24 9.8 37 10.6L35.52 12.04C34.98 11.52 33.94 10.8 32.6 10.8C30.9 10.8 30 11.7 30 12.7C30 15.8 37.4 13.9 37.4 19.1C37.4 21.3 35.5 23.2 32.4 23.2ZM44.1945 23.2C41.3945 23.2 39.1945 21 39.1945 18.2C39.1945 15.4 41.3945 13.2 44.1945 13.2C46.9945 13.2 49.1945 15.4 49.1945 18.2C49.1945 21 46.9945 23.2 44.1945 23.2ZM44.1945 21.3C45.8945 21.3 47.1945 20 47.1945 18.2C47.1945 16.4 45.8945 15.1 44.1945 15.1C42.4945 15.1 41.1945 16.4 41.1945 18.2C41.1945 20 42.4945 21.3 44.1945 21.3ZM55.7961 23.2C52.9961 23.2 50.7961 21 50.7961 18.2C50.7961 15.4 52.9961 13.2 55.7961 13.2C58.5961 13.2 60.7961 15.4 60.7961 18.2C60.7961 21 58.5961 23.2 55.7961 23.2ZM55.7961 21.3C57.4961 21.3 58.7961 20 58.7961 18.2C58.7961 16.4 57.4961 15.1 55.7961 15.1C54.0961 15.1 52.7961 16.4 52.7961 18.2C52.7961 20 54.0961 21.3 55.7961 21.3ZM64.9977 23H62.9977V13.4H64.9977V14.76H65.0177C65.4577 14.08 66.5577 13.2 67.9977 13.2C70.1977 13.2 71.7977 14.8 71.7977 17.4V23H69.7977V17.4C69.7977 16 68.8977 15.1 67.5977 15.1C66.0977 15.1 64.9977 16.2 64.9977 17.8V23Z" fill="#F1D9BD"/>
</g>
<defs>
<clipPath id="clip0_3133_3737">
<rect width="100" height="32" fill="white"/>
</clipPath>
</defs>
</svg>
